<?xml version="1.0" encoding="utf-8"?>
<!-- Generator: Adobe Illustrator 18.0.0, SVG Export Plug-In . SVG Version: 6.00 Build 0)  -->
<!DOCTYPE svg PUBLIC "-//W3C//DTD SVG 1.1//EN" "http://www.w3.org/Graphics/SVG/1.1/DTD/svg11.dtd">
<svg version="1.1" id="Livello_1" xmlns="http://www.w3.org/2000/svg" xmlns:xlink="http://www.w3.org/1999/xlink" x="0px" y="0px"
	 viewBox="0 0 140 100" enable-background="new 0 0 140 100" xml:space="preserve">
<g>
	<path fill="#31A9CE" d="M35.8,14.8c0,3.4,0,6.8-0.1,10.2c0,3.4,0,6.8-0.1,10.2l-5.5-0.1l0.9-12.6l-1.6,0l-2,5.5l-1.8,7.3L18.9,35
		l-1-12.6l-1.2-0.1c-0.1,1.9-0.2,3.9-0.3,6.1c-0.1,2.2-0.3,4.6-0.4,7.2l-4.8-0.1c0.7-5.9,1.1-10.4,1.3-13.7c-0.4,0-0.8,0-1.2,0
		c-0.4,0-0.7,0-1,0c0-1.2,0-2.3,0-3.5c0-1.2,0-2.4,0-3.7c1.9,0,3.6,0,5,0.1c1.4,0,2.6,0,3.6,0c1.1,0,2,0,2.8,0h0l0.8,11.9l1.7,0.2
		l0.7-1.5c1-3.3,1.7-5.9,2.2-7.6c0.5-1.7,0.7-2.7,0.8-2.8l6.4,0L35.8,14.8z M11.2,29.8l-0.1-6.8L10.2,23l0.1-0.6l1.4,0.1L11.2,29.8z
		 M11,14l5.1-0.6l4.3,0.6H11z M18.3,34.2c-0.2-1-0.3-1.9-0.5-2.7c-0.1-0.8-0.3-1.5-0.4-2.2c0-0.7,0-1.5,0-2.4c0-0.9,0-2,0-3.2
		L18.3,34.2z M22.9,25.6l-0.8-10.6l0.9,4.4l0.2,5.7l0.6,0.1v0.7L22.9,25.6z M24.2,24.5l0.9-5.8l1.7-3.5L24.2,24.5z M28,31.4
		l-1.4,2.9l2.5-9L28,31.4z M28.8,14.2l3.2-0.5l3.1,0.6L28.8,14.2z M29.8,32.5l0.1-8.6l-0.4,0.1l0.1-0.6l0.7,0L29.8,32.5z"/>
	<path fill="#31A9CE" d="M37.1,31.8l0.3-3.9l0.5,5.6L37.1,31.8z M39.5,22l-1.7-6.5l3.9,10.8L39.5,22z M50.9,32.6l-2,2.5l-6.2,0.8
		l-4.2-2L38,27.4l3.6-0.1l0.4,3.2l5.4,0.1l0.7-2.1h-5.1L38,14.6l4.9-0.3l1.9,7.9l4.4,0l2.2-7.7l4.9-0.1L50.9,32.6z M38.1,27l1.9-0.5
		l1.5,0.4L38.1,27z M38.3,14.1l2.9-0.6l1.4,0.4L38.3,14.1z M40.3,35.8l-1.8-1.4l3.8,1.8L40.3,35.8z M47,30l-4.7-0.1l0-0.4l4.5,0.1
		l0.2-0.8h0.4L47,30z M48.1,36.3l-4.7,0l5.3-0.5L48.1,36.3z M48.8,21.6l-3.4,0l-1.8-7.3l1.3,3.5l0.8,3.4h3.1L48.8,21.6z M50.5,34.9
		l-1.1,0.5l1.8-2.4L50.5,34.9z M51.6,13.9l2-0.5l2.7,0.4L51.6,13.9z M54.8,24l-3,7.8l4.4-14.8L54.8,24z"/>
	<path fill="#31A9CE" d="M64.9,22.5l-0.1-7.2l0.9,10.3L64.9,22.5z M87.5,35.1l-7.4,0.1l-1.2-11.4l-0.7-1.5l-0.9,0.3l-3.2,12.7
		l-6.9-0.3l-1.7-20.5l3.9-0.2l1.2,11.1l1.7,0.2l0.7-2.3l1.7-8.7l6.1,0.2l2.7,10.3H84l0.8-2.3l1.4-8.7l4.2,0.4L87.5,35.1z M65.5,32
		l0.3-5.1l0.6,8L65.5,32z M65.6,14l2.4-0.6l1.1,0.6L65.6,14z M70.8,23.9L70,15.1l1.1,4.7L70.8,23.9z M72,24.6l0.2-3.8l1.7-5.7
		L72,24.6z M74.9,14.1l4.1-0.5l1.3,0.7L74.9,14.1z M76.6,30.8l-1.7,3.7l2.9-11L76.6,30.8z M78.4,31.7v-6.3L79,34L78.4,31.7z
		 M81.4,15.6l1.8,3.9l0.3,3.6L81.4,15.6z M84.4,22.4l-0.1-2.7l1.3-5L84.4,22.4z M86.5,13.8l2.8-0.4l0.9,0.6L86.5,13.8z M89.5,30.4
		L88.3,35l1.5-9.9L89.5,30.4z M89.8,23.6l1.1-8.3v4.9L89.8,23.6z"/>
	<path fill="#31A9CE" d="M91.8,20.7l0.4-4.9l0.3,9.2L91.8,20.7z M92,33.2l0.1-2.5v-3.3l0.5-1.7l0,5.1l0.1,3.9L92,33.2z M92.9,14.7
		l0.9-0.8l1.8,0.2L92.9,14.7z M108.6,35.4c-1.6,0-3.7,0-6.2-0.1c-2.6,0-5.7,0-9.3,0l0.2-3.7l-0.4-16.4c0.5-0.1,0.8-0.2,1.2-0.3
		c0.3-0.1,0.6-0.2,0.8-0.2c0.3-0.1,0.5-0.1,0.7-0.2l12.8,0.6c0,0.3-0.1,1.1-0.1,2.2c0,1.1-0.1,2.7-0.2,4.7l-11.3,0.2l-0.4,1.2
		l1.7,0.3l8.5-0.1l0.1,2.8l-10.3,0.2L96.4,28l0.9,0.1c1,0,4.4,0.1,10.1,0.2l1,0.4L108.6,35.4z M96.7,14.1l6.7-0.4l4.7,0.9L96.7,14.1
		z M104.9,23.2l-7.2,0.1l0.3-0.5h7.4L104.9,23.2z M98.1,27.5L98,27.1h8.3l0.1,0.5L98.1,27.5z M107.4,26.6l-0.2-2.9l0.6,1.2
		L107.4,26.6z"/>
	<path fill="#31A9CE" d="M110.3,20.8l0.6-4.1l0.2,9.9L110.3,20.8z M110.9,34.8l-0.6-2.2l0.8-5.2L110.9,34.8z M127,35.1
		c-1.2,0.1-2.5,0.2-3.9,0.3s-2.8,0.2-4.3,0.3c-3-0.1-5.4-0.2-7.2-0.3c0-0.7,0-2,0-3.8c0-1.8,0-4.2,0-7.2v-8.4l1.4-1.5
		c2.6,0.1,4.6,0.2,6.2,0.2c1.5,0,2.5,0.1,2.9,0.1l6.8,2.4c-0.2,0.9-0.4,2.1-0.5,3.3c-0.2,1.3-0.4,2.7-0.6,4.3l1.3,1
		c0.1,0.8,0.3,1.6,0.4,2.4c0.1,0.8,0.3,1.6,0.4,2.4L127,35.1z M113.9,13.9l4.3-0.5l2.9,0.6L113.9,13.9z M124.8,27.3l-1.2-0.3
		l-7.7,0.2l-0.1,1c0.1,0.2,0.1,0.5,0.2,0.7c0,0.2,0.1,0.4,0.1,0.5c2.1,0.1,3.4,0.1,3.7,0.1s0.9,0,1.8-0.1c0.9-0.1,2-0.1,3.5-0.3
		l0.5-1.1L124.8,27.3z M123.1,21.3l-7,0.1l-0.3,1.9l0.2,0.8c2.3-0.2,4-0.4,5.4-0.5c1.3-0.1,2.2-0.2,2.6-0.3l0.4-0.9L123.1,21.3z
		 M116.7,28.3l0.1-0.3l6.6-0.2l0,0.5H116.7z M116.8,22.8l0.1-0.5l5.6-0.1l0.6,0.2L116.8,22.8z M123.1,14.4l4.2,0.9l1.4,1.1
		L123.1,14.4z M129.7,32.8l-2.1,2.3l2.2-3.5L129.7,32.8z M129.4,21.1l-1,2.9l0.8-6.2l0.3,1L129.4,21.1z"/>
	<path fill="#1D71B8" d="M45.2,86.2l-1-10.1l-17.6-1l-1,2.2l-1.4,8.6h-8.3c0.3-1.2,1-3.9,2.1-8c1.1-4.1,2.5-9.8,4.4-16.9l-0.9-1.2
		l-8.2-0.9V45.5l0.5-1.4l31.4,0.3c2.9,12.3,5.2,21.9,6.8,28.8c1.6,6.9,2.6,11.2,3,12.7L45.2,86.2z M17.4,74.9l2-13.2l-6-0.9v-0.9
		l7.3,1.1L17.4,74.9z M14.9,85.3l-0.2-3.7l2.4-5.7L14.9,85.3z M16.9,42.9l8.5-0.9l16.8,1.4L16.9,42.9z M28.5,77.1L27,79.3l-0.8,3.4
		l-0.9,2.2l1.3-6.5l1.3-2l13.8,0.9L28.5,77.1z M30.6,59.6L30,63.4l9.1,0.3l0.2-3.7L30.6,59.6z M37.4,62.2l-5.3-0.3l0.2-0.7l5.4,0.2
		L37.4,62.2z M42.8,82.2l0.7-4.5l0.5,7.6L42.8,82.2z M46.6,45.8l5.1,15.3l2.6,17.5L46.6,45.8z"/>
	<path fill="#1D71B8" d="M58.3,85.5l-1.1-9l1.7-15.2L58.3,85.5z M57.9,53.7l1.2-7.1l0.1,13L57.9,53.7z M86.3,73.3l-10,1.6L67.6,75
		l0.8,11.6l-9-0.4l1.1-30.6l-0.1-9.8l6.1-0.7l21.9,1.2l4,14L86.3,73.3z M60.6,45l0.5-1.2l4.6,0.5L60.6,45z M81.3,57.3H68.7l-1.4,0.9
		l0.2,8.1l6.1,0.3l8.6-0.9l1.8-6.8L81.3,57.3z M68.5,65.4L68.4,59l0.8-0.7l0.1,6.4l4.2,1.2L68.5,65.4z M68.5,44.4l18.6-0.3l0.8,1.2
		L68.5,44.4z M69.9,77.6l0.4,5.4l-0.6,3.2L69,76.5l6.8-0.3L69.9,77.6z M81.3,64.9l-5.2,0.6l4.5-1.4l1.4-4.5l-0.9-0.5l-9-0.5l9.3-0.1
		l1.4,0.8L81.3,64.9z M84.5,75.9l-7.1,0.3l8.5-1.7L84.5,75.9z M89.3,71.5l-1.7,1.6l5.4-10.6L89.3,71.5z M89.8,47l2.9,6.8l0.4,4.7
		L89.8,47z"/>
	<path fill="#1D71B8" d="M95.2,85.5l-1.1-9l1.7-15.2L95.2,85.5z M94.8,53.7l1.2-7.1l0.1,13L94.8,53.7z M123.2,73.3l-10,1.6l-8.6,0.1
		l0.8,11.6l-9-0.4l1.1-30.6l-0.1-9.8l6.1-0.7l21.9,1.2l4,14L123.2,73.3z M97.5,45l0.5-1.2l4.6,0.5L97.5,45z M118.3,57.3h-12.7
		l-1.4,0.9l0.2,8.1l6.1,0.3l8.6-0.9l1.8-6.8L118.3,57.3z M105.5,65.4l-0.1-6.4l0.8-0.7l0.1,6.4l4.2,1.2L105.5,65.4z M105.5,44.4
		l18.6-0.3l0.8,1.2L105.5,44.4z M106.8,77.6l0.4,5.4l-0.6,3.2l-0.7-9.7l6.8-0.3L106.8,77.6z M118.3,64.9l-5.2,0.6l4.5-1.4l1.4-4.5
		l-0.9-0.5l-9-0.5l9.3-0.1l1.4,0.8L118.3,64.9z M121.5,75.9l-7.1,0.3l8.5-1.7L121.5,75.9z M126.2,71.5l-1.7,1.6l5.4-10.6L126.2,71.5
		z M126.8,47l2.9,6.8l0.4,4.7L126.8,47z"/>
</g>
</svg>
